# xmcd
# 
# Track frame offsets:
#     150
#     14638
#     32550
#     50880
#     69294
#     85433
#     103694
#     122296
#     148588
#     167503
# 
# Disc length: 2417
# 
# Revision: 0
# Processed by: cddbd v1.5.2PL0 Copyright (c) Steve Scherf et al.
# Submitted via: fre:ac v1.0.27
# 
DISCID=82096f0a
DTITLE=Various Artist - Rec 3
DYEAR=0
DGENRE=Top 40
TTITLE0=Gorki - Lieve Kleine Pirana
TTITLE1=Pink - Jiust Like A Pill
TTITLE2=Nena - Irgendwie Irgendwo Irgendwan
TTITLE3=Nena - Anyplace Anywhere Anytime
TTITLE4=The Bet - Don't Talk To The Liar
TTITLE5=Van Halen - Jump
TTITLE6=A Ha - Cry Wolf
TTITLE7=Dire Straits - Sultans Of Swing
TTITLE8=Genesis - Abacab
TTITLE9=Junior Senior - Move Your Feet
EXTD=
EXTT0=
EXTT1=
EXTT2=
EXTT3=
EXTT4=
EXTT5=
EXTT6=
EXTT7=
EXTT8=
EXTT9=
PLAYORDER=
